<svg viewBox="0 0 96 96" xmlns="http://www.w3.org/2000/svg" xmlns:xlink="http://www.w3.org/1999/xlink" id="Icons_AngelFace_M" overflow="hidden"><g id="Icons"><path d="M74 16.3C74.6 16.8 75.1 17.3 75.7 17.8 79 16.4 81 14.6 81 12.5 81 6.3 64 3 48 3 32 3 15 6.3 15 12.5 15 14.6 17 16.4 20.3 17.8 20.9 17.3 21.4 16.8 22 16.3 18.8 15 17 13.7 17 12.5 17 9.4 28.8 5 48 5 67.2 5 79 9.4 79 12.5 79 13.7 77.3 15.1 74 16.3Z"/><path d="M48 86C69 86 86 69 86 48 86 27 69 10 48 10 27 10 10 27 10 48 10 69 27 86 48 86ZM48 12C67.9 12 84 28.1 84 48 84 67.9 67.9 84 48 84 28.1 84 12 67.9 12 48 12 28.1 28.1 12 48 12Z"/><path d="M30.1 62.4C29.7 62 29.1 61.9 28.7 62.3 28.3 62.6 28.2 63.2 28.5 63.7 37.1 74.5 52.8 76.2 63.6 67.6 65 66.4 66.3 65.1 67.5 63.7 67.8 63.3 67.8 62.6 67.3 62.3 66.9 62 66.2 62 65.9 62.5 58 72.3 43.6 73.9 33.7 66 32.3 64.9 31.1 63.7 30.1 62.4L30.1 62.4Z"/><path d="M25.1 45C25.6 45.2 26.2 44.9 26.3 44.3 26.3 44.3 26.3 44.3 26.3 44.3 27.5 40.3 31.7 38.1 35.7 39.3 38.1 40 39.9 41.9 40.7 44.3 40.9 44.8 41.4 45.1 41.9 45 42.4 44.9 42.7 44.3 42.6 43.8 42.6 43.8 42.6 43.8 42.6 43.8 41.1 38.8 35.7 36 30.7 37.5 27.7 38.4 25.3 40.8 24.4 43.8 24.3 44.2 24.6 44.8 25.1 45Z"/><path d="M54.1 45C54.6 45.2 55.2 44.9 55.3 44.3 55.3 44.3 55.3 44.3 55.3 44.3 56.5 40.3 60.7 38.1 64.7 39.3 67.1 40 68.9 41.9 69.7 44.3 69.9 44.8 70.4 45.1 70.9 45 71.4 44.8 71.7 44.3 71.6 43.8 71.6 43.8 71.6 43.8 71.6 43.8 70.1 38.8 64.7 36 59.7 37.5 56.7 38.4 54.3 40.8 53.4 43.8 53.3 44.2 53.6 44.8 54.1 45Z"/></g></svg>