<svg viewBox="0 0 96 96" xmlns="http://www.w3.org/2000/svg" xmlns:xlink="http://www.w3.org/1999/xlink" id="Icons_Children_M" overflow="hidden"><g id="Icons"><path d="M38.007 34C41.3207 34 44.007 31.3137 44.007 28 44.007 24.6863 41.3207 22 38.007 22 34.6933 22 32.007 24.6863 32.007 28 32.0109 31.3121 34.6949 33.9961 38.007 34ZM38.007 24C40.2161 24 42.007 25.7909 42.007 28 42.007 30.2091 40.2161 32 38.007 32 35.7979 32 34.007 30.2091 34.007 28 34.007 25.7909 35.7979 24 38.007 24Z"/><path d="M43.007 47C42.4547 47 42.007 47.4477 42.007 48L42.007 69 39.007 69 39.007 56 37.007 56 37.007 69 34.007 69 34.007 48C34.007 47.4477 33.5593 47 33.007 47 32.4547 47 32.007 47.4477 32.007 48L32.007 71 44.007 71 44.007 48C44.007 47.4477 43.5593 47 43.007 47Z"/><path d="M17.5 34C20.8137 34 23.5 31.3137 23.5 28 23.5 24.6863 20.8137 22 17.5 22 14.1863 22 11.5 24.6863 11.5 28 11.5039 31.3121 14.1879 33.9961 17.5 34ZM17.5 24C19.7091 24 21.5 25.7909 21.5 28 21.5 30.2091 19.7091 32 17.5 32 15.2909 32 13.5 30.2091 13.5 28 13.5 25.7909 15.2909 24 17.5 24Z"/><path d="M23.5 52.011 23.5 48C23.5 47.4477 23.0523 47 22.5 47 21.9477 47 21.5 47.4477 21.5 48L21.5 52.2 21.5 52.2C21.4988 52.3268 21.5215 52.4526 21.567 52.571L24.532 60 10.48 60 13.429 52.571C13.4766 52.4532 13.5008 52.3271 13.5 52.2L13.5 52.2 13.5 48C13.5 47.4477 13.0523 47 12.5 47 11.9477 47 11.5 47.4477 11.5 48L11.5 52.011 7.534 62 11.5 62 11.5 71 23.5 71 23.5 62 27.482 62ZM13.5 69 13.5 62 16.5 62 16.5 69ZM21.5 69 18.5 69 18.5 62 21.5 62Z"/><path d="M78.5 34C81.8137 34 84.5 31.3137 84.5 28 84.5 24.6863 81.8137 22 78.5 22 75.1863 22 72.5 24.6863 72.5 28 72.5039 31.3121 75.1879 33.9961 78.5 34ZM78.5 24C80.7091 24 82.5 25.7909 82.5 28 82.5 30.2091 80.7091 32 78.5 32 76.2909 32 74.5 30.2091 74.5 28 74.5 25.7909 76.2909 24 78.5 24Z"/><path d="M83.5 47C82.9477 47 82.5 47.4477 82.5 48L82.5 69 79.5 69 79.5 56 77.5 56 77.5 69 74.5 69 74.5 48C74.5 47.4477 74.0523 47 73.5 47 72.9477 47 72.5 47.4477 72.5 48L72.5 71 84.5 71 84.5 48C84.5 47.4477 84.0523 47 83.5 47Z"/><path d="M90.8 51.432 86.865 40.411 86.644 39.952C86.2248 39.0947 85.5982 38.3557 84.821 37.802 80.9495 35.3993 76.0505 35.3993 72.179 37.802 71.4016 38.3552 70.7752 39.0944 70.357 39.952L68.257 45.739 66.357 40.411 66.136 39.952C65.7168 39.0947 65.0902 38.3557 64.313 37.802 60.4415 35.3993 55.5425 35.3993 51.671 37.802 50.8936 38.3559 50.267 39.0953 49.848 39.953L48.015 45.015 46.371 40.415 46.15 39.956C45.7308 39.0987 45.1042 38.3597 44.327 37.806 42.45 36.5818 40.2474 35.9524 38.007 36 35.7669 35.9504 33.5639 36.5777 31.686 37.8 30.9088 38.3535 30.2825 39.0926 29.864 39.95L27.764 45.737 25.864 40.409 25.643 39.95C25.2238 39.0927 24.5972 38.3537 23.82 37.8 21.9424 36.5779 19.7398 35.9506 17.5 36 15.2599 35.9502 13.0569 36.5776 11.179 37.8 10.4016 38.3532 9.77523 39.0924 9.357 39.95L5.2 51.433C4.59514 53.0608 5.31096 54.8831 6.862 55.664 7.30235 55.8716 7.78318 55.9791 8.27 55.979 8.82229 55.979 9.27 55.5313 9.27 54.979 9.27 54.4267 8.82229 53.979 8.27 53.979 8.07633 53.9788 7.8851 53.9358 7.71 53.853 7.09408 53.5084 6.82685 52.7622 7.084 52.105L11 41.141 11.148 40.841C11.4171 40.2839 11.821 39.8027 12.323 39.441 13.8683 38.4595 15.6698 37.958 17.5 38 19.3307 37.9586 21.1326 38.4607 22.678 39.443 23.1803 39.8046 23.5845 40.2858 23.854 40.843L26.7 48.694 25.708 51.433C25.1022 53.0608 25.8182 54.8837 27.37 55.664 27.8102 55.8719 28.2911 55.9795 28.778 55.979 29.3303 55.979 29.778 55.5313 29.778 54.979 29.778 54.4267 29.3303 53.979 28.778 53.979 28.5843 53.9788 28.3931 53.9358 28.218 53.853 27.6021 53.5085 27.3345 52.7625 27.591 52.105L31.507 41.141 31.655 40.841C31.9245 40.2838 32.3287 39.8026 32.831 39.441 34.3761 38.4598 36.1772 37.9584 38.007 38 39.8377 37.9586 41.6396 38.4607 43.185 39.443 43.6873 39.8046 44.0915 40.2858 44.361 40.843L46.946 47.969 45.692 51.431C45.0871 53.0588 45.803 54.8811 47.354 55.662 47.7944 55.8696 48.2752 55.9771 48.762 55.977 49.3143 55.977 49.762 55.5293 49.762 54.977 49.762 54.4247 49.3143 53.977 48.762 53.977 48.5683 53.9768 48.3771 53.9338 48.202 53.851 47.5861 53.5064 47.3188 52.7602 47.576 52.103L51.492 41.14 51.639 40.846C51.9083 40.2887 52.3125 39.8075 52.815 39.446 55.9989 37.5221 59.9871 37.5221 63.171 39.446 63.6736 39.8073 64.0779 40.2886 64.347 40.846L67.191 48.695 66.2 51.433C65.5951 53.0608 66.311 54.8831 67.862 55.664 68.3024 55.8716 68.7832 55.9791 69.27 55.979 69.8223 55.979 70.27 55.5313 70.27 54.979 70.27 54.4267 69.8223 53.979 69.27 53.979 69.0763 53.9788 68.8851 53.9358 68.71 53.853 68.0941 53.5084 67.8268 52.7622 68.084 52.105L72 41.141 72.148 40.841C72.4171 40.2839 72.821 39.8027 73.323 39.441 76.5069 37.5171 80.4951 37.5171 83.679 39.441 84.1813 39.8026 84.5855 40.2838 84.855 40.841L88.919 52.101C89.1755 52.7585 88.9079 53.5045 88.292 53.849 88.1169 53.9318 87.9257 53.9748 87.732 53.975 87.1797 53.975 86.732 54.4227 86.732 54.975 86.732 55.5273 87.1797 55.975 87.732 55.975 88.2189 55.9755 88.6998 55.868 89.14 55.66 90.6891 54.8789 91.4039 53.0584 90.8 51.432Z"/><path d="M57.993 34C61.3067 34 63.993 31.3137 63.993 28 63.993 24.6863 61.3067 22 57.993 22 54.6793 22 51.993 24.6863 51.993 28 51.9969 31.3121 54.6809 33.9961 57.993 34ZM57.993 24C60.2021 24 61.993 25.7909 61.993 28 61.993 30.2091 60.2021 32 57.993 32 55.7839 32 53.993 30.2091 53.993 28 53.993 25.7909 55.7839 24 57.993 24Z"/><path d="M63.993 52.011 63.993 48C63.993 47.4477 63.5453 47 62.993 47 62.4407 47 61.993 47.4477 61.993 48L61.993 52.2 61.993 52.2C61.9917 52.3269 62.0147 52.4528 62.061 52.571L65.025 60 50.973 60 53.922 52.571C53.968 52.4535 53.9908 52.3282 53.989 52.202L53.989 52.202 53.989 48C53.989 47.4477 53.5413 47 52.989 47 52.4367 47 51.989 47.4477 51.989 48L51.989 52.011 48.027 62 51.993 62 51.993 71 63.993 71 63.993 62 67.975 62ZM53.993 69 53.993 62 56.993 62 56.993 69ZM61.993 69 58.993 69 58.993 62 61.993 62Z"/></g></svg>